<svg xmlns="http://www.w3.org/2000/svg" width="21.421" height="21.421" viewBox="0 0 21.421 21.421">
  <path id="arrow-up-right-from-square_1_" data-name="arrow-up-right-from-square (1)" d="M17.851,9.818v7.14a4.468,4.468,0,0,1-4.463,4.463H4.463A4.468,4.468,0,0,1,0,16.958V8.033A4.468,4.468,0,0,1,4.463,3.57H11.6a.893.893,0,0,1,0,1.785H4.463A2.681,2.681,0,0,0,1.785,8.033v8.925a2.681,2.681,0,0,0,2.678,2.678h8.925a2.681,2.681,0,0,0,2.678-2.678V9.818a.893.893,0,1,1,1.785,0ZM18.743,0H12.5a.893.893,0,0,0,0,1.785h5.878L7.4,12.757a.892.892,0,1,0,1.262,1.262L19.636,3.047V8.925a.893.893,0,0,0,1.785,0V2.678A2.681,2.681,0,0,0,18.743,0Z" fill="#fff"/>
</svg>
