<svg xmlns="http://www.w3.org/2000/svg" width="72.271" height="63.512" viewBox="0 0 72.271 63.512">
  <g id="Group_116" data-name="Group 116" transform="translate(-44 -74.626)">
    <path id="Path_176" data-name="Path 176" d="M116.271,98.251q-6.285,6.485-12.555,12.985a1.483,1.483,0,0,0-.283.949q-.022,12.528-.012,25.055v.9H56.85v-.828q0-12.563.01-25.126a1.533,1.533,0,0,0-.478-1.174q-6.2-6.367-12.381-12.76V98.11c.154-.2.321-.395.459-.607,3.037-4.67,6.033-9.367,9.115-14.007a18.672,18.672,0,0,1,16.119-8.8q10.441-.131,20.884,0a18.674,18.674,0,0,1,16.12,8.8c3.083,4.64,6.078,9.337,9.115,14.007.138.212.305.405.459.607Zm-48.9-19.169a14.7,14.7,0,0,0-10.147,6.554c-2.532,3.822-4.992,7.692-7.506,11.525a.662.662,0,0,0,.1,1.007c2.208,2.251,4.391,4.525,6.583,6.791.105.109.222.207.457.424V98.022h4.255v35.9H99.2v-35.9h4.257v7.268a1.609,1.609,0,0,0,.231-.151q3.437-3.549,6.878-7.1a.523.523,0,0,0,.044-.786c-.654-.977-1.282-1.971-1.928-2.953-2.172-3.3-4.222-6.687-6.559-9.864a13.829,13.829,0,0,0-9.265-5.357c-.2.978-.38,1.922-.6,2.855a12.416,12.416,0,0,1-23.886,1.187C67.94,81.842,67.715,80.489,67.375,79.082ZM88.5,78.946H71.772c.44,4.952,3.839,8.44,8.322,8.408C84.341,87.323,87.972,84.441,88.5,78.946Z" fill="#e1ad9d"/>
    <path id="Path_177" data-name="Path 177" d="M223.047,278.048c-3.546-3.249-7.477-5.944-10.465-9.659a8.373,8.373,0,0,1-1.347-9.171,7.07,7.07,0,0,1,10.591-3c.432.316.81.7,1.255,1.1.353-.325.68-.658,1.039-.951a7.124,7.124,0,0,1,9.647,1.043,8.6,8.6,0,0,1-.218,11.021,58.607,58.607,0,0,1-7.371,6.963C225.167,276.262,224.142,277.119,223.047,278.048Zm.029-5.58c1.768-1.543,3.465-2.992,5.123-4.485a19.551,19.551,0,0,0,1.842-1.94,5.041,5.041,0,0,0,1.371-3.869,3.282,3.282,0,0,0-2.355-2.939,2.913,2.913,0,0,0-3.26,1.521c-.1.158-.211.312-.3.478-.352.664-.539,1.623-1.087,1.922-.616.337-1.557.048-2.354.094-.469.027-.644-.185-.811-.574a15.585,15.585,0,0,0-1.055-2.138,2.713,2.713,0,0,0-2.673-1.37,2.835,2.835,0,0,0-2.434,1.782,4.139,4.139,0,0,0,.409,4.218C217.484,268.124,220.456,270.059,223.077,272.468Z" transform="translate(-142.937 -154.826)" fill="#e1ad9d"/>
  </g>
</svg>
