<svg xmlns="http://www.w3.org/2000/svg" xmlns:xlink="http://www.w3.org/1999/xlink" width="636.559" height="106.766" viewBox="0 0 636.559 106.766">
  <defs>
    <linearGradient id="linear-gradient" x1="0.5" x2="0.5" y2="1" gradientUnits="objectBoundingBox">
      <stop offset="0" stop-color="#fceeeb"/>
      <stop offset="1" stop-color="#e1ad9d"/>
    </linearGradient>
  </defs>
  <g id="Group_119" data-name="Group 119" transform="translate(-26.063 -41.846) rotate(4)">
    <path id="Path_178" data-name="Path 178" d="M438.866,41.126c16.745-1.531,36.408-.088,54.25-1.465v1.1c1.431.058,1.18-1.1,2.531-1.1,1.845-.357.237,1.786,2.539,1.1.71-.129.039-.645-.508-.734,1.022-.088,3.074-.057,4.058,1.1,1.711-.148-1.352-1.421,1.009-1.1,8.151,1.207,17.682-1.447,26.871,1.469,15.471-.45,33.039.014,50.7.732,3.818.155,7.232.673,10.142.366,2.632-.277,7.593.269,10.643.367,3.388.106,7.015,1.209,9.632,1.1-1.566.065,7.151-1.486,6.083.367,6.493-1.355,14.608.718,21.294.366,1.084-.173.97.522,1.014,1.1,1.467-1.466,4.454.27,5.576-1.1.59,2.283,3.41-.832,4.566,1.464,2.768-1.815,6.474.316,10.14.734,2.579.3,6.959-.812,7.6,1.833-2.8.079-6.661,1.466-15.211,0,1.391.884-4.328,1.195-4.563-.367-2.147,2.4-8.411-.442-10.137,2.2-1.708-.332-.062-.82-1.014-1.466-6.582,1.176-10.853-.632-17.239-.366,3.7,2.489,8.425,2.926,13.69,2.564,1.707.026.085.838,1.516,1.467,1.792-.371.931-.634,1.524-1.467,7.37,2.006,20.584,1.008,28.388,3.3-6.268-.208-15.02,1.246-20.275-.731a228.913,228.913,0,0,1-33.461-.368c-.719-.065-2.372.322-1.016-.732-2.088,1.006-4.486.48-7.605.365-49.726-1.815-107.276-.109-154.122,1.466-52.491,1.766-101.817,4.668-154.122,9.53C212.071,71.775,136.406,86.179,63.7,99.035c-6.6,1.165-13.015,2.775-19.77,3.3-1.8-.214-3.482-1.893-2.028-3.3-2.662-.217-3.839.645-6.593.366a10.6,10.6,0,0,1-2.027-3.3,18.9,18.9,0,0,1,8.112-4.032c.949-.7.055-.92,0-1.832A255.1,255.1,0,0,1,100.2,75.579c34.77-4.106,70.309-11.185,104.44-15.394,8.219-1.015,15.485-1.2,24.335-1.835,10.987-.788,25.078-3.2,38.53-3.3,8.331-.058,17.993-2.1,27.884-2.931,47.168-3.955,101.721-8.243,148.545-9.9C442.961,39.7,440.391,42.069,438.866,41.126Zm178.966,7.33H615.3C614.8,49.933,618.328,49.933,617.832,48.456Z" transform="translate(0 0)" fill-rule="evenodd" fill="url(#linear-gradient)"/>
    <path id="Path_179" data-name="Path 179" d="M268.9,42.227c1.44-1.223,5.66-.36,2.572,0C270.551,42.334,270.544,41.944,268.9,42.227Z" transform="translate(137.256)" fill-rule="evenodd" fill="url(#linear-gradient)"/>
  </g>
</svg>
