<svg xmlns="http://www.w3.org/2000/svg" width="21.751" height="25.973" viewBox="0 0 21.751 25.973">
  <g id="_01_align_center" transform="translate(-40.725 -0.198)">
    <path id="Path_159" data-name="Path 159" d="M51.6,26.171l-.754-.647c-1.04-.871-10.121-8.714-10.121-14.451a10.876,10.876,0,1,1,21.751,0c0,5.737-9.081,13.58-10.117,14.455Zm0-23.621a8.534,8.534,0,0,0-8.524,8.524c0,3.6,5.587,9.361,8.524,12,2.937-2.636,8.524-8.4,8.524-12A8.534,8.534,0,0,0,51.6,2.55Z" fill="#8e5c4d"/>
    <path id="Path_160" data-name="Path 160" d="M174.437,138.221a4.311,4.311,0,1,1,4.311-4.311A4.311,4.311,0,0,1,174.437,138.221Zm0-6.467a2.156,2.156,0,1,0,2.156,2.156A2.156,2.156,0,0,0,174.437,131.754Z" transform="translate(-122.836 -122.836)" fill="#8e5c4d"/>
  </g>
</svg>
