<svg id="Group_86" data-name="Group 86" xmlns="http://www.w3.org/2000/svg" xmlns:xlink="http://www.w3.org/1999/xlink" width="384.782" height="80.588" viewBox="0 0 384.782 80.588">
  <defs>
    <clipPath id="clip-path">
      <rect id="Rectangle_3" data-name="Rectangle 3" width="384.782" height="80.588" fill="#fff"/>
    </clipPath>
  </defs>
  <g id="Group_1" data-name="Group 1" clip-path="url(#clip-path)">
    <path id="Path_1" data-name="Path 1" d="M21.491,71.517h0a18.231,18.231,0,0,1-.756-11.355,18,18,0,0,1,1.344-3.452q.434-.854.967-1.7t1.165-1.677a41.8,41.8,0,0,1,9.976-8.988c8.149-5.537,14.008-12.195,16.946-19.254.207-.5.766-2.053.855-2.331a24.545,24.545,0,0,0-.03-15.5h0c-.193-.577-.41-1.151-.647-1.721C50.762,4.217,48.8.907,48.8.907A40.294,40.294,0,0,0,23.7,77.012s-2.137-5.294-2.211-5.5M3.837,40.294a36.451,36.451,0,0,1,40.4-36.242,86.956,86.956,0,0,1-8.356,9.357c-3.769,3.706-7.84,7.157-11.8,10.827a77.683,77.683,0,0,0-5.721,5.809,35.673,35.673,0,0,0-4.719,6.765,26.8,26.8,0,0,0-2.712,7.808,31.842,31.842,0,0,0-.386,7.541.653.653,0,0,0,1.3-.061,30.43,30.43,0,0,1,.65-7.167,25.059,25.059,0,0,1,2.824-7.194,33.63,33.63,0,0,1,4.7-6.192,75.566,75.566,0,0,1,5.765-5.4c4.033-3.448,8.272-6.761,12.289-10.406A90.211,90.211,0,0,0,47.3,6.164c.39.835.737,1.638,1.051,2.414C52.59,21.414,43.22,33.569,32.03,41.172,20.073,49.3,14.972,58.1,16.573,67.955A36.387,36.387,0,0,1,3.837,40.294" transform="translate(0 0)" fill="#fff"/>
    <path id="Path_2" data-name="Path 2" d="M78.739,40.124A40.362,40.362,0,0,0,52.28,2.278a30.068,30.068,0,0,1,1.9,4.963,36.45,36.45,0,0,1,.12,65.708c-5.048,2.137-8.842,1.5-11.145.583A10.17,10.17,0,0,1,37.5,68.216c-1.178-2.787-.723-5.1.095-6.331a2.248,2.248,0,0,1,1.743-1.128,23.684,23.684,0,0,1,3.8.577c3.766.75,8.035,1.6,10.19-.843a6.76,6.76,0,0,0,1.527-5.744,4.832,4.832,0,0,1-.005-1.57,11.2,11.2,0,0,1,.882-2.05,8.6,8.6,0,0,0,1.224-3.9,3.081,3.081,0,0,0-.147-.953,3.3,3.3,0,0,0,.634-.871,6.493,6.493,0,0,0,.29-4.046,13.7,13.7,0,0,1-.189-1.831c2.06-.706,4.942-1.913,4.942-4.868,0-1.663-1.329-2.933-3.169-4.691-1.989-1.9-4.465-4.266-5.182-7.162-.006-.028-.012-.056-.019-.084-.347,1.227-1.674,4.587-1.885,5.038a29.575,29.575,0,0,0,4.436,4.982A18.282,18.282,0,0,1,58.6,34.765c-.156.232-.817.632-2.817,1.3-.243.081-.477.159-.7.236a1.92,1.92,0,0,0-1.258,1.5,12.613,12.613,0,0,0,.1,4.123,8.6,8.6,0,0,1,.116,2.029c-.2.087-2.4.044-2.71.053-.987.027-1.792.417-1.86,1.4s.625,1.477,1.6,1.64c.266.044,1.88.187,1.98.217a11.211,11.211,0,0,1-.752,2.128,14.592,14.592,0,0,0-1.16,2.77,7.857,7.857,0,0,0-.115,2.96c.129,1.321.157,1.992-.587,2.836-.692.788-4.656,0-6.56-.383a25.584,25.584,0,0,0-4.549-.651,5.953,5.953,0,0,0-4.942,2.845c-1.772,2.672-1.933,6.39-.431,9.946a13.832,13.832,0,0,0,6.509,6.813q-1.006.056-2.025.058a36.257,36.257,0,0,1-13.629-2.645l1.927,4.747a40.29,40.29,0,0,0,29.135-2.234c.048-.021.1-.038.145-.059a2.061,2.061,0,0,0,.2-.114A40.34,40.34,0,0,0,78.739,40.124" transform="translate(1.849 0.17)" fill="#fff"/>
    <path id="Path_3" data-name="Path 3" d="M95.833,36.5V4.167h20.6v5.24h-14.8v7.7H115.5V22.35H101.631v8.906h15.122V36.5Z" transform="translate(7.14 0.31)" fill="#fff"/>
    <path id="Path_4" data-name="Path 4" d="M128.689,37.359,116.118,12.5h5.8l6.772,13.915L135.46,12.5h5.752Z" transform="translate(8.652 0.931)" fill="#fff"/>
    <path id="Path_5" data-name="Path 5" d="M139.3,24.225A11.61,11.61,0,0,1,151.411,11.98a10.6,10.6,0,0,1,8.209,3.386,11.555,11.555,0,0,1,3.2,8.3c0,.7-.047,1.391-.093,1.994h-17.9c.186,3.71,2.922,6.076,7.05,6.076,3.664,0,6.447-.881,8.4-2.691v5.2a14.79,14.79,0,0,1-8.627,2.366,12.459,12.459,0,0,1-8.953-3.293,11.856,11.856,0,0,1-3.386-8.859Zm17.857-2.5a4.569,4.569,0,0,0-1.669-3.524,5.973,5.973,0,0,0-4.082-1.485,7.053,7.053,0,0,0-4.453,1.485,4.729,4.729,0,0,0-2,3.524Z" transform="translate(10.379 0.893)" fill="#fff"/>
    <path id="Path_6" data-name="Path 6" d="M164.575,35.907V12.531H170.1v3.477c1.112-2.457,3.664-3.942,6.957-3.942a8.653,8.653,0,0,1,1.669.14v5.38a11.931,11.931,0,0,0-2.319-.232c-3.85,0-6.307,2.412-6.307,6.262V35.907Z" transform="translate(12.262 0.899)" fill="#fff"/>
    <rect id="Rectangle_1" data-name="Rectangle 1" width="5.566" height="32.329" transform="translate(193.856 4.477)" fill="#fff"/>
    <path id="Path_7" data-name="Path 7" d="M197.376,36.2l-9.6-23.7h5.706L200.3,29.566l7-17.069h5.706l-13.73,32.375h-5.658Z" transform="translate(13.991 0.931)" fill="#fff"/>
    <path id="Path_8" data-name="Path 8" d="M221.964,36.495V4.166h11.688a9.1,9.1,0,0,1,6.4,2.366,7.492,7.492,0,0,1,2.644,5.89,6.531,6.531,0,0,1-4.128,6.493c4.128.742,6.494,3.9,6.494,8.024a9.1,9.1,0,0,1-2.829,6.865,9.586,9.586,0,0,1-7,2.689Zm5.8-19.295h5.1a3.9,3.9,0,0,0,4.174-3.989,3.848,3.848,0,0,0-4.128-3.8h-5.148Zm0,14.055h6.492a4.732,4.732,0,0,0,5.058-4.639c0-2.6-2.135-4.545-5.1-4.545h-6.446Z" transform="translate(16.538 0.31)" fill="#fff"/>
    <path id="Path_9" data-name="Path 9" d="M246.284,24.225A11.612,11.612,0,0,1,258.392,11.98a10.605,10.605,0,0,1,8.209,3.386,11.56,11.56,0,0,1,3.2,8.3c0,.7-.047,1.391-.093,1.994H251.8c.186,3.71,2.922,6.076,7.05,6.076,3.664,0,6.447-.881,8.4-2.691v5.2a14.786,14.786,0,0,1-8.627,2.366,12.458,12.458,0,0,1-8.952-3.293,11.853,11.853,0,0,1-3.387-8.859Zm17.858-2.5a4.567,4.567,0,0,0-1.67-3.524,5.968,5.968,0,0,0-4.081-1.485,7.048,7.048,0,0,0-4.453,1.485,4.722,4.722,0,0,0-2,3.524Z" transform="translate(18.35 0.893)" fill="#fff"/>
    <path id="Path_10" data-name="Path 10" d="M289.494,15.918V12.533h5.567V35.91h-5.567V32.524c-.788,2.274-3.618,3.9-7.467,3.9a11.239,11.239,0,0,1-8.349-3.479,12.192,12.192,0,0,1-3.341-8.72,12,12,0,0,1,3.341-8.673,11.106,11.106,0,0,1,8.349-3.525c3.849,0,6.679,1.624,7.467,3.9m-1.67,13.406a6.816,6.816,0,0,0,2.088-5.1,6.812,6.812,0,0,0-2.088-5.1,6.919,6.919,0,0,0-5.056-2.042,6.715,6.715,0,0,0-4.963,2.042,7.072,7.072,0,0,0-1.947,5.1,7.075,7.075,0,0,0,1.947,5.1,6.718,6.718,0,0,0,4.963,2.04,6.922,6.922,0,0,0,5.056-2.04" transform="translate(20.142 0.896)" fill="#fff"/>
    <path id="Path_11" data-name="Path 11" d="M297.651,12.5h5.612V26.133c0,3.525,2,5.243,5.1,5.243s5.1-1.763,5.1-5.288V12.5h5.612V26.459c0,3.247-1.02,5.751-3.061,7.468a11.512,11.512,0,0,1-7.7,2.551,11.31,11.31,0,0,1-7.655-2.551,9.116,9.116,0,0,1-3.014-7.329Z" transform="translate(22.177 0.931)" fill="#fff"/>
    <path id="Path_12" data-name="Path 12" d="M323.4,36.5V18.174H320.39V13.12H323.4V4.167h5.566V13.12h5.056v5.054H328.97V36.5Z" transform="translate(23.871 0.31)" fill="#fff"/>
    <path id="Path_13" data-name="Path 13" d="M344.219,36.2l-9.6-23.7h5.7l6.819,17.069,7-17.069h5.707l-13.73,32.375h-5.659Z" transform="translate(24.932 0.931)" fill="#fff"/>
    <path id="Path_14" data-name="Path 14" d="M114.822,71.252v-14.3h2.564V68.933h5.683v2.319Z" transform="translate(8.555 4.243)" fill="#fff"/>
    <path id="Path_15" data-name="Path 15" d="M124.817,71.3l7.078-15,7.058,15h-2.728l-1.273-2.77H128.8l-1.27,2.77Zm4.945-4.986h4.227l-2.112-4.658Z" transform="translate(9.3 4.195)" fill="#fff"/>
    <path id="Path_16" data-name="Path 16" d="M140.21,67.309a6.4,6.4,0,0,0,4.636,1.908c1.724,0,2.749-.8,2.749-1.764a1.656,1.656,0,0,0-.677-1.395,11.189,11.189,0,0,0-2.523-1.293c-2.462-1.047-3.8-2.175-3.8-4.227a3.273,3.273,0,0,1,1.354-2.769,5.465,5.465,0,0,1,3.446-1.047,6.04,6.04,0,0,1,3.467.985v2.6a5,5,0,0,0-3.405-1.251c-1.457,0-2.3.594-2.3,1.476-.083.472.348.883.7,1.191a6.438,6.438,0,0,0,1.045.575l.677.307c.328.144.554.226.657.287a8.661,8.661,0,0,1,2.975,1.908,3.781,3.781,0,0,1,.923,2.647,3.689,3.689,0,0,1-1.354,2.914,5.746,5.746,0,0,1-3.8,1.148,8.043,8.043,0,0,1-4.779-1.456Z" transform="translate(10.447 4.226)" fill="#fff"/>
    <path id="Path_17" data-name="Path 17" d="M152.731,71.252v-14.3h9.11v2.319H155.3v3.405h6.134v2.318H155.3v3.939h6.689v2.319Z" transform="translate(11.38 4.243)" fill="#fff"/>
    <path id="Path_18" data-name="Path 18" d="M164.933,71.251v-14.3h5.559a4.5,4.5,0,0,1,3.283,1.313,4.257,4.257,0,0,1,1.354,3.22,4.315,4.315,0,0,1-2.606,4.062l3.467,5.7H173.1l-3.057-5.088H167.5v5.088Zm2.564-7.385h2.729a2.245,2.245,0,0,0,2.359-2.339,2.141,2.141,0,0,0-2.154-2.256H167.5Z" transform="translate(12.289 4.243)" fill="#fff"/>
    <path id="Path_19" data-name="Path 19" d="M187.135,71.252v-14.3H189.7v5.58h6.874v-5.58h2.543v14.3h-2.543v-6.4H189.7v6.4Z" transform="translate(13.943 4.243)" fill="#fff"/>
    <path id="Path_20" data-name="Path 20" d="M201.046,71.3l7.078-15,7.058,15h-2.73l-1.271-2.77h-6.155l-1.271,2.77Zm4.945-4.986h4.226L208.1,61.657Z" transform="translate(14.979 4.195)" fill="#fff"/>
    <rect id="Rectangle_2" data-name="Rectangle 2" width="2.564" height="14.3" transform="translate(233.168 61.196)" fill="#fff"/>
    <path id="Path_21" data-name="Path 21" d="M223.5,71.251v-14.3h5.559a4.5,4.5,0,0,1,3.283,1.313,4.257,4.257,0,0,1,1.354,3.22,4.314,4.314,0,0,1-2.6,4.062l3.466,5.7h-2.893l-3.057-5.088h-2.543v5.088Zm2.565-7.385H228.8a2.246,2.246,0,0,0,2.36-2.339A2.142,2.142,0,0,0,229,59.271h-2.933Z" transform="translate(16.653 4.243)" fill="#fff"/>
    <path id="Path_22" data-name="Path 22" d="M245.705,71.251v-14.3h5.559a4.5,4.5,0,0,1,3.283,1.313,4.257,4.257,0,0,1,1.354,3.22,4.314,4.314,0,0,1-2.6,4.062l3.466,5.7H253.87l-3.057-5.088H248.27v5.088Zm2.565-7.385H251a2.246,2.246,0,0,0,2.36-2.339,2.142,2.142,0,0,0-2.154-2.256H248.27Z" transform="translate(18.307 4.243)" fill="#fff"/>
    <path id="Path_23" data-name="Path 23" d="M259.3,71.252v-14.3h9.11v2.319h-6.545v3.405H268v2.318h-6.134v3.939h6.689v2.319Z" transform="translate(19.32 4.243)" fill="#fff"/>
    <path id="Path_24" data-name="Path 24" d="M271.5,71.285V56.513l7.3,8.842,7.3-8.842V71.285h-2.523v-8.1L278.8,69.008l-4.78-5.827v8.1Z" transform="translate(20.229 4.211)" fill="#fff"/>
    <path id="Path_25" data-name="Path 25" d="M290.282,69.423a7.43,7.43,0,0,1,0-10.545,7.731,7.731,0,0,1,10.709,0,7.4,7.4,0,0,1,.021,10.545,7.811,7.811,0,0,1-10.73,0m1.764-1.641a5.129,5.129,0,0,0,7.159,0,5.254,5.254,0,0,0,0-7.263,5.075,5.075,0,0,0-7.159,0,4.98,4.98,0,0,0-1.436,3.631,4.918,4.918,0,0,0,1.436,3.632" transform="translate(21.465 4.226)" fill="#fff"/>
    <path id="Path_26" data-name="Path 26" d="M310.347,71.868l-6.873-14.915H306.2l4.144,9.315,4.165-9.315h2.728Z" transform="translate(22.611 4.243)" fill="#fff"/>
    <path id="Path_27" data-name="Path 27" d="M315.519,71.3l7.079-15,7.057,15h-2.728l-1.272-2.77H319.5l-1.271,2.77Zm4.945-4.986h4.227l-2.112-4.658Z" transform="translate(23.509 4.195)" fill="#fff"/>
    <path id="Path_28" data-name="Path 28" d="M331.436,71.252v-14.3H334V68.933h5.683v2.319Z" transform="translate(24.694 4.243)" fill="#fff"/>
  </g>
</svg>
