<svg id="Group_2" data-name="Group 2" xmlns="http://www.w3.org/2000/svg" xmlns:xlink="http://www.w3.org/1999/xlink" width="248" height="51.941" viewBox="0 0 248 51.941">
  <defs>
    <clipPath id="clip-path">
      <rect id="Rectangle_3" data-name="Rectangle 3" width="248" height="51.941" fill="none"/>
    </clipPath>
  </defs>
  <g id="Group_1" data-name="Group 1" clip-path="url(#clip-path)">
    <path id="Path_1" data-name="Path 1" d="M13.851,46.094h0a11.75,11.75,0,0,1-.488-7.319,11.6,11.6,0,0,1,.866-2.225q.279-.551.623-1.094t.751-1.081a26.941,26.941,0,0,1,6.43-5.793c5.252-3.569,9.029-7.86,10.922-12.41.134-.321.494-1.323.551-1.5a15.82,15.82,0,0,0-.019-9.989h0c-.125-.372-.265-.742-.417-1.109C32.717,2.718,31.452.585,31.452.585A25.97,25.97,0,0,0,15.277,49.636s-1.377-3.412-1.425-3.542M2.473,25.97A23.494,23.494,0,0,1,28.514,2.612a56.045,56.045,0,0,1-5.386,6.031c-2.429,2.389-5.053,4.613-7.607,6.978a50.068,50.068,0,0,0-3.687,3.744,22.992,22.992,0,0,0-3.042,4.36,17.276,17.276,0,0,0-1.748,5.033,20.523,20.523,0,0,0-.249,4.86.421.421,0,0,0,.84-.039,19.613,19.613,0,0,1,.419-4.619,16.151,16.151,0,0,1,1.82-4.637,21.676,21.676,0,0,1,3.03-3.991A48.7,48.7,0,0,1,16.62,16.85c2.6-2.222,5.331-4.357,7.921-6.707a58.143,58.143,0,0,0,5.948-6.17c.251.538.475,1.055.677,1.556,2.729,8.272-3.31,16.106-10.522,21.007C12.937,31.772,9.65,37.448,10.682,43.8A23.452,23.452,0,0,1,2.473,25.97" transform="translate(0 0)" fill="#dcaa9b"/>
    <path id="Path_2" data-name="Path 2" d="M59.571,26.671A26.014,26.014,0,0,0,42.517,2.278a19.379,19.379,0,0,1,1.223,3.2,23.493,23.493,0,0,1,.078,42.35,9.223,9.223,0,0,1-7.183.376,6.555,6.555,0,0,1-3.646-3.427,4.388,4.388,0,0,1,.061-4.08,1.449,1.449,0,0,1,1.123-.727,15.265,15.265,0,0,1,2.449.372c2.427.483,5.179,1.032,6.567-.544a4.357,4.357,0,0,0,.984-3.7,3.114,3.114,0,0,1,0-1.012,7.222,7.222,0,0,1,.569-1.321,5.54,5.54,0,0,0,.789-2.516,1.986,1.986,0,0,0-.095-.614,2.128,2.128,0,0,0,.409-.562,4.185,4.185,0,0,0,.187-2.607,8.831,8.831,0,0,1-.122-1.18c1.328-.455,3.185-1.233,3.185-3.137,0-1.072-.857-1.891-2.042-3.024-1.282-1.225-2.878-2.749-3.34-4.616,0-.018-.008-.036-.012-.054-.224.791-1.079,2.956-1.215,3.247A19.062,19.062,0,0,0,45.34,21.91a11.783,11.783,0,0,1,1.252,1.306c-.1.15-.526.407-1.816.837-.157.052-.307.1-.449.152a1.237,1.237,0,0,0-.811.964,8.129,8.129,0,0,0,.065,2.657,5.545,5.545,0,0,1,.075,1.308c-.13.056-1.544.028-1.747.034-.636.017-1.155.269-1.2.9s.4.952,1.031,1.057c.172.028,1.212.121,1.276.14a7.226,7.226,0,0,1-.485,1.371,9.4,9.4,0,0,0-.748,1.785,5.064,5.064,0,0,0-.074,1.908c.083.851.1,1.284-.378,1.828-.446.508-3,0-4.228-.247a16.489,16.489,0,0,0-2.932-.42,3.837,3.837,0,0,0-3.185,1.834,6.816,6.816,0,0,0-.278,6.41,8.915,8.915,0,0,0,4.2,4.391q-.648.036-1.305.037a23.369,23.369,0,0,1-8.784-1.705l1.242,3.06a25.968,25.968,0,0,0,18.778-1.44c.031-.014.062-.024.093-.038a1.328,1.328,0,0,0,.131-.073,26,26,0,0,0,14.51-23.3" transform="translate(-7.63 -0.7)" fill="#dcaa9b"/>
    <path id="Path_3" data-name="Path 3" d="M95.833,25V4.167h13.274V7.544H99.57v4.963h8.939v3.379H99.57v5.74h9.746V25Z" transform="translate(-29.465 -1.281)" fill="#dcaa9b"/>
    <path id="Path_4" data-name="Path 4" d="M124.22,28.521l-8.1-16.023h3.738l4.364,8.968,4.364-8.968h3.707Z" transform="translate(-35.701 -3.843)" fill="#dcaa9b"/>
    <path id="Path_5" data-name="Path 5" d="M139.3,19.872a7.483,7.483,0,0,1,7.8-7.892,6.834,6.834,0,0,1,5.291,2.182,7.447,7.447,0,0,1,2.063,5.351c0,.449-.03.9-.06,1.285H142.863c.12,2.391,1.883,3.916,4.544,3.916a7.647,7.647,0,0,0,5.412-1.734v3.348a9.533,9.533,0,0,1-5.56,1.525,8.03,8.03,0,0,1-5.77-2.123,7.641,7.641,0,0,1-2.182-5.71Zm11.509-1.614a2.945,2.945,0,0,0-1.076-2.272,3.85,3.85,0,0,0-2.631-.957,4.546,4.546,0,0,0-2.87.957,3.048,3.048,0,0,0-1.286,2.272Z" transform="translate(-42.83 -3.683)" fill="#dcaa9b"/>
    <path id="Path_6" data-name="Path 6" d="M164.575,27.432V12.366h3.558v2.241a4.649,4.649,0,0,1,4.484-2.541,5.577,5.577,0,0,1,1.076.09v3.468a7.69,7.69,0,0,0-1.495-.15,3.775,3.775,0,0,0-4.065,4.036v7.922Z" transform="translate(-50.6 -3.71)" fill="#dcaa9b"/>
    <rect id="Rectangle_1" data-name="Rectangle 1" width="3.587" height="20.837" transform="translate(124.944 2.886)" fill="#dcaa9b"/>
    <path id="Path_7" data-name="Path 7" d="M193.963,27.774,187.774,12.5h3.677l4.394,11,4.514-11h3.677l-8.849,20.866h-3.647Z" transform="translate(-57.733 -3.843)" fill="#dcaa9b"/>
    <path id="Path_8" data-name="Path 8" d="M221.964,25V4.166H229.5a5.864,5.864,0,0,1,4.125,1.525,4.829,4.829,0,0,1,1.7,3.8,4.21,4.21,0,0,1-2.661,4.185,4.933,4.933,0,0,1,4.186,5.172,5.865,5.865,0,0,1-1.823,4.425A6.178,6.178,0,0,1,230.513,25ZM225.7,12.567h3.288A2.512,2.512,0,0,0,231.68,10a2.48,2.48,0,0,0-2.661-2.452H225.7Zm0,9.058h4.184a2.975,2.975,0,1,0-.03-5.919H225.7Z" transform="translate(-68.245 -1.281)" fill="#dcaa9b"/>
    <path id="Path_9" data-name="Path 9" d="M246.284,19.872a7.484,7.484,0,0,1,7.8-7.892,6.835,6.835,0,0,1,5.291,2.182,7.45,7.45,0,0,1,2.063,5.351c0,.449-.03.9-.06,1.285H249.842c.12,2.391,1.883,3.916,4.544,3.916a7.644,7.644,0,0,0,5.411-1.734v3.348a9.53,9.53,0,0,1-5.56,1.525,8.029,8.029,0,0,1-5.77-2.123,7.639,7.639,0,0,1-2.183-5.71Zm11.51-1.614a2.943,2.943,0,0,0-1.076-2.272,3.847,3.847,0,0,0-2.63-.957,4.543,4.543,0,0,0-2.87.957,3.044,3.044,0,0,0-1.286,2.272Z" transform="translate(-75.722 -3.683)" fill="#dcaa9b"/>
    <path id="Path_10" data-name="Path 10" d="M282.685,14.533V12.352h3.588V27.419h-3.588V25.236c-.508,1.465-2.332,2.512-4.812,2.512a7.244,7.244,0,0,1-5.381-2.242,7.858,7.858,0,0,1-2.153-5.62,7.737,7.737,0,0,1,2.153-5.59,7.158,7.158,0,0,1,5.381-2.272c2.481,0,4.3,1.046,4.812,2.51m-1.076,8.64a4.393,4.393,0,0,0,1.346-3.288,4.391,4.391,0,0,0-1.346-3.288,4.459,4.459,0,0,0-3.258-1.316,4.328,4.328,0,0,0-3.2,1.316,4.558,4.558,0,0,0-1.255,3.288,4.56,4.56,0,0,0,1.255,3.288,4.33,4.33,0,0,0,3.2,1.315,4.462,4.462,0,0,0,3.258-1.315" transform="translate(-83.118 -3.697)" fill="#dcaa9b"/>
    <path id="Path_11" data-name="Path 11" d="M297.651,12.5h3.617v8.788a3.018,3.018,0,0,0,3.288,3.379c2,0,3.289-1.136,3.289-3.408V12.5h3.617v9a5.948,5.948,0,0,1-1.973,4.813,7.419,7.419,0,0,1-4.962,1.644,7.29,7.29,0,0,1-4.934-1.644,5.875,5.875,0,0,1-1.943-4.724Z" transform="translate(-91.515 -3.843)" fill="#dcaa9b"/>
    <path id="Path_12" data-name="Path 12" d="M322.332,25V13.195H320.39V9.937h1.943V4.167h3.587v5.77h3.258v3.258H325.92V25Z" transform="translate(-98.506 -1.281)" fill="#dcaa9b"/>
    <path id="Path_13" data-name="Path 13" d="M340.806,27.774,334.618,12.5h3.677l4.395,11,4.513-11h3.678l-8.849,20.866h-3.648Z" transform="translate(-102.881 -3.843)" fill="#dcaa9b"/>
    <path id="Path_14" data-name="Path 14" d="M114.822,66.169V56.952h1.652v7.722h3.663v1.494Z" transform="translate(-35.303 -17.51)" fill="#dcaa9b"/>
    <path id="Path_15" data-name="Path 15" d="M124.817,65.97l4.562-9.666,4.549,9.666H132.17l-.821-1.785h-3.967l-.819,1.785ZM128,62.756h2.724l-1.362-3Z" transform="translate(-38.376 -17.311)" fill="#dcaa9b"/>
    <path id="Path_16" data-name="Path 16" d="M140.21,63.546a4.123,4.123,0,0,0,2.988,1.23c1.111,0,1.772-.516,1.772-1.137a1.068,1.068,0,0,0-.436-.9,7.212,7.212,0,0,0-1.626-.833c-1.587-.675-2.446-1.4-2.446-2.724a2.11,2.11,0,0,1,.873-1.785,3.523,3.523,0,0,1,2.221-.675,3.893,3.893,0,0,1,2.235.635v1.679a3.219,3.219,0,0,0-2.195-.806c-.939,0-1.481.383-1.481.952-.053.3.224.569.449.767a4.15,4.15,0,0,0,.674.371l.436.2c.211.093.357.145.423.185a5.582,5.582,0,0,1,1.918,1.23,2.437,2.437,0,0,1,.595,1.706,2.377,2.377,0,0,1-.873,1.878,3.7,3.7,0,0,1-2.447.74,5.184,5.184,0,0,1-3.08-.938Z" transform="translate(-43.109 -17.44)" fill="#dcaa9b"/>
    <path id="Path_17" data-name="Path 17" d="M152.731,66.169V56.952H158.6v1.495h-4.218v2.195h3.954v1.494h-3.954v2.539H158.7v1.494Z" transform="translate(-46.958 -17.51)" fill="#dcaa9b"/>
    <path id="Path_18" data-name="Path 18" d="M164.933,66.169V56.953h3.583a2.9,2.9,0,0,1,2.116.846,2.744,2.744,0,0,1,.873,2.076,2.781,2.781,0,0,1-1.679,2.618l2.235,3.676H170.2l-1.97-3.279h-1.64v3.279Zm1.652-4.76h1.759a1.447,1.447,0,0,0,1.52-1.508,1.38,1.38,0,0,0-1.389-1.454h-1.891Z" transform="translate(-50.71 -17.511)" fill="#dcaa9b"/>
    <path id="Path_19" data-name="Path 19" d="M187.135,66.169V56.952h1.652v3.6h4.43v-3.6h1.639v9.216h-1.639V62.043h-4.43v4.125Z" transform="translate(-57.536 -17.51)" fill="#dcaa9b"/>
    <path id="Path_20" data-name="Path 20" d="M201.046,65.97l4.562-9.666,4.549,9.666H208.4l-.819-1.785h-3.967l-.819,1.785Zm3.187-3.213h2.724l-1.362-3Z" transform="translate(-61.813 -17.311)" fill="#dcaa9b"/>
    <rect id="Rectangle_2" data-name="Rectangle 2" width="1.652" height="9.216" transform="translate(150.282 39.442)" fill="#dcaa9b"/>
    <path id="Path_21" data-name="Path 21" d="M223.5,66.169V56.953h3.583a2.9,2.9,0,0,1,2.116.846,2.744,2.744,0,0,1,.873,2.076,2.781,2.781,0,0,1-1.679,2.618l2.234,3.676h-1.864l-1.97-3.279h-1.639v3.279Zm1.653-4.76h1.758a1.448,1.448,0,0,0,1.521-1.508,1.381,1.381,0,0,0-1.389-1.454h-1.891Z" transform="translate(-68.717 -17.511)" fill="#dcaa9b"/>
    <path id="Path_22" data-name="Path 22" d="M245.705,66.169V56.953h3.583a2.9,2.9,0,0,1,2.116.846,2.744,2.744,0,0,1,.873,2.076,2.781,2.781,0,0,1-1.679,2.618l2.234,3.676h-1.864L249,62.889h-1.639v3.279Zm1.653-4.76h1.758a1.448,1.448,0,0,0,1.521-1.508,1.381,1.381,0,0,0-1.389-1.454h-1.891Z" transform="translate(-75.544 -17.511)" fill="#dcaa9b"/>
    <path id="Path_23" data-name="Path 23" d="M259.3,66.169V56.952h5.871v1.495h-4.218v2.195H264.9v1.494h-3.954v2.539h4.311v1.494Z" transform="translate(-79.723 -17.51)" fill="#dcaa9b"/>
    <path id="Path_24" data-name="Path 24" d="M271.5,66.034v-9.52l4.707,5.7,4.707-5.7v9.52h-1.626V60.811L276.2,64.566l-3.081-3.756v5.223Z" transform="translate(-83.474 -17.376)" fill="#dcaa9b"/>
    <path id="Path_25" data-name="Path 25" d="M289.5,64.908a4.789,4.789,0,0,1,0-6.8,4.983,4.983,0,0,1,6.9,0,4.772,4.772,0,0,1,.014,6.8,5.034,5.034,0,0,1-6.916,0m1.137-1.058a3.305,3.305,0,0,0,4.614,0,3.386,3.386,0,0,0,0-4.681,3.271,3.271,0,0,0-4.614,0,3.21,3.21,0,0,0-.925,2.34,3.17,3.17,0,0,0,.925,2.341" transform="translate(-88.575 -17.44)" fill="#dcaa9b"/>
    <path id="Path_26" data-name="Path 26" d="M307.9,66.565l-4.43-9.613h1.758l2.671,6,2.684-6h1.758Z" transform="translate(-93.306 -17.51)" fill="#dcaa9b"/>
    <path id="Path_27" data-name="Path 27" d="M315.519,65.97l4.562-9.666,4.549,9.666h-1.758l-.82-1.785h-3.967l-.819,1.785Zm3.187-3.213h2.724l-1.362-3Z" transform="translate(-97.009 -17.311)" fill="#dcaa9b"/>
    <path id="Path_28" data-name="Path 28" d="M331.436,66.169V56.952h1.653v7.722h3.663v1.494Z" transform="translate(-101.903 -17.51)" fill="#dcaa9b"/>
  </g>
</svg>
