<svg xmlns="http://www.w3.org/2000/svg" width="50.618" height="66.421" viewBox="0 0 50.618 66.421">
  <g id="Group_114" data-name="Group 114" transform="translate(-153.689 -108)">
    <path id="Path_172" data-name="Path 172" d="M166.02,174.421a36.488,36.488,0,0,1-3.915-1.065,13.531,13.531,0,0,1-8.4-12.2c-.029-2.03,0-4.061,0-6.078.048-.043.08-.1.111-.1,2.569.037,5.154-.082,7.7.16a12.733,12.733,0,0,1,7.75,3.9v-.794q0-10.5-.013-21a1.639,1.639,0,0,1,.549-1.29c2.279-2.245,4.525-4.522,6.8-6.768a1.425,1.425,0,0,0,.456-1.133c-.019-2.72-.009-5.44-.009-8.232H180.9v-7.9h-7.748V108H192.62v11.841h3.893c0,2.729.022,5.387-.016,8.044a1.829,1.829,0,0,0,.62,1.457c2.249,2.213,4.463,4.462,6.711,6.676a1.507,1.507,0,0,1,.479,1.188q-.017,18.607-.009,37.215Zm34.362-3.917c.01-.159.022-.264.022-.369q0-15.788-.013-31.576a1.228,1.228,0,0,0-.344-.77q-2.934-2.98-5.918-5.911a1.5,1.5,0,0,0-.946-.381q-6.42-.037-12.84,0a1.406,1.406,0,0,0-.889.365c-1.977,1.936-3.919,3.906-5.889,5.848a1.3,1.3,0,0,0-.416,1.018q.017,10.666.008,21.331v.491a15.738,15.738,0,0,1,3.73-1.392c2.587-.276,5.21-.212,7.819-.284.032,0,.066.048.13.1,0,1.617-.039,3.259.009,4.9a10.444,10.444,0,0,1-1.824,6.489c-.019.027,0,.08,0,.145Zm-42.765-11.592c-.757,7.936,5.261,12.408,11.6,11.541C170.039,163.344,164.732,158.04,157.617,158.912Zm15.568,11.555c5.705.731,8.413-3.134,7.663-7.689C175.831,162.222,172.626,165.052,173.185,170.467Zm7.787-42.923h11.6V123.73h-11.6Zm3.908-15.623v7.832h3.813v-7.832Z" transform="translate(0 0)" fill="#e1ad9d"/>
    <path id="Path_173" data-name="Path 173" d="M308.345,304.584H288.972v-15.64h19.373Zm-3.886-3.9v-7.833h-11.6v7.833Z" transform="translate(-111.883 -149.646)" fill="#e1ad9d"/>
  </g>
</svg>
