<svg xmlns="http://www.w3.org/2000/svg" width="63.339" height="69.165" viewBox="0 0 63.339 69.165">
  <g id="Group_115" data-name="Group 115" transform="translate(-124.865 -108)">
    <path id="Path_174" data-name="Path 174" d="M179.509,177.165H155.194a2.57,2.57,0,0,0-.376-.119,8.627,8.627,0,0,1-5.147-2.716,30.377,30.377,0,0,1-1.953-2.645c.057-.019.023-.018.016,0-.072.138-.144.276-.207.419a8.19,8.19,0,0,1-5.886,4.886c-.212.052-.421.119-.631.178h-2.161a1.04,1.04,0,0,0-.234-.112,8.185,8.185,0,0,1-6.923-8.639c.047-1.416.175-2.83.27-4.245q.442-6.568.887-13.137c.189-2.852.452-5.7.524-8.558.091-3.622.032-7.249.008-10.874a2.3,2.3,0,0,0-.321-1.128q-3.966-6.513-7.983-12.995a.994.994,0,0,1-.007-1.215,16.82,16.82,0,0,1,10.4-7.719c.931-.238,1.89-.366,2.836-.544h3.242a3.194,3.194,0,0,0,.453.114,16.336,16.336,0,0,1,12.779,8.214.936.936,0,0,1-.01,1.144q-4.016,6.48-7.982,12.993a2.3,2.3,0,0,0-.329,1.124q-.036,5.47-.008,10.94c0,.834.091,1.667.138,2.472,2.086-10.773,8.239-17.547,19.4-18.508,8.622-.742,15.516,3.075,19.492,10.751,5.23,10.1,2.676,18.973-5.584,26.513h7.716c0,1.486.008,2.9,0,4.311a9.165,9.165,0,0,1-6.8,8.792C180.384,176.975,179.945,177.064,179.509,177.165Zm4.508-30.1a16.655,16.655,0,1,0-16.638,16.7A16.66,16.66,0,0,0,184.017,147.06ZM141.945,128.3c.878.229,1.53.127,1.869-.745a4.2,4.2,0,0,1,.383-.634l6.1-9.925c-5.157-6.763-16.036-6.4-20.723.026l6.492,10.569c.564.919.669.959,1.85.684V122.23h4.034ZM137.317,145c-.078,1.118-.152,2.17-.224,3.222q-.449,6.634-.9,13.269c-.165,2.492-.38,4.984-.448,7.479a3.842,3.842,0,0,0,2.54,3.8,3.982,3.982,0,0,0,4.507-.805,4.687,4.687,0,0,0,1.289-4.147c-.42-5.858-.8-11.719-1.195-17.579-.117-1.725-.24-3.45-.362-5.187a3.508,3.508,0,0,0-.382-.047C140.574,145,139,145,137.317,145ZM151.2,168.045a5.036,5.036,0,0,0,5.114,5.062q11.04.021,22.08-.014a5.848,5.848,0,0,0,2.094-.423,4.8,4.8,0,0,0,3-4.626Zm-13.711-35.571V140.9h4.867v-8.422ZM155,163.718a21.99,21.99,0,0,1-7.946-11.854q.4,5.93.8,11.854Z" fill="#e1ad9d"/>
    <path id="Path_175" data-name="Path 175" d="M304.3,256.081a12.4,12.4,0,1,1-12.44,12.384A12.435,12.435,0,0,1,304.3,256.081Zm-.078,20.754a8.351,8.351,0,1,0-8.31-8.366A8.371,8.371,0,0,0,304.219,276.835Z" transform="translate(-136.914 -121.409)" fill="#e1ad9d"/>
  </g>
</svg>
