<svg xmlns="http://www.w3.org/2000/svg" width="33.409" height="33.409" viewBox="0 0 33.409 33.409">
  <path id="Icon_awesome-plus" data-name="Icon awesome-plus" d="M31.023,15.375H20.284V4.636A2.387,2.387,0,0,0,17.9,2.25H15.511a2.387,2.387,0,0,0-2.386,2.386V15.375H2.386A2.387,2.387,0,0,0,0,17.761v2.386a2.387,2.387,0,0,0,2.386,2.386H13.125V33.273a2.387,2.387,0,0,0,2.386,2.386H17.9a2.387,2.387,0,0,0,2.386-2.386V22.534H31.023a2.387,2.387,0,0,0,2.386-2.386V17.761A2.387,2.387,0,0,0,31.023,15.375Z" transform="translate(0 -2.25)"/>
</svg>
