<svg xmlns="http://www.w3.org/2000/svg" width="66.421" height="66.421" viewBox="0 0 66.421 66.421">
  <g id="Group_112" data-name="Group 112" transform="translate(-44 -44)">
    <path id="Path_169" data-name="Path 169" d="M110.421,75.265v3.892H97.057a20.158,20.158,0,0,1-4.466,10.73l9.386,9.356-2.726,2.738-9.374-9.385a20.087,20.087,0,0,1-10.72,4.468v13.358H75.265V97.057a20.182,20.182,0,0,1-10.729-4.464l-9.363,9.381-2.731-2.725,9.385-9.371a20.134,20.134,0,0,1-4.468-10.722H44V75.265H57.364a20.091,20.091,0,0,1,4.46-10.723l-9.383-9.37,2.726-2.728,9.366,9.392a20.142,20.142,0,0,1,10.73-4.477V44h3.892V57.365a20.047,20.047,0,0,1,10.723,4.459l9.369-9.382,2.729,2.733-9.39,9.361a20.122,20.122,0,0,1,4.476,10.728ZM75.241,61.32c-8.051.785-14.493,8.416-14.073,16.507.5,9.555,8.314,14.861,14.073,15.224Zm3.947,31.791A16.216,16.216,0,0,0,83.679,91.9a.91.91,0,0,0,.646-1.006q-.025-13.318-.012-26.637a4.841,4.841,0,0,0-.016-.969.962.962,0,0,0-.38-.625,14.323,14.323,0,0,0-4.729-1.355Zm9.07-27.439v23.08A15.876,15.876,0,0,0,88.258,65.673Z" transform="translate(0 0)" fill="#e1ad9d"/>
  </g>
</svg>
