<svg xmlns="http://www.w3.org/2000/svg" width="48" height="48" viewBox="0 0 48 48">
  <g id="Group_133" data-name="Group 133" transform="translate(-579 -5543)">
    <circle id="Ellipse_14" data-name="Ellipse 14" cx="24" cy="24" r="24" transform="translate(579 5543)" fill="#e1ad9d" opacity="0.1"/>
    <path id="Icon_simple-tiktok" data-name="Icon simple-tiktok" d="M12.541.019C13.758,0,14.966.009,16.174,0A5.786,5.786,0,0,0,17.8,3.874a6.551,6.551,0,0,0,3.939,1.663V9.28a9.943,9.943,0,0,1-3.9-.9,11.477,11.477,0,0,1-1.5-.864c-.009,2.713.009,5.425-.019,8.128a7.1,7.1,0,0,1-1.254,3.66,6.921,6.921,0,0,1-5.49,2.982,6.774,6.774,0,0,1-3.79-.957,7.005,7.005,0,0,1-3.391-5.3c-.019-.464-.028-.929-.009-1.384a6.993,6.993,0,0,1,8.11-6.205c.019,1.375-.037,2.75-.037,4.125a3.187,3.187,0,0,0-4.069,1.969,3.685,3.685,0,0,0-.13,1.5A3.162,3.162,0,0,0,9.5,18.69a3.121,3.121,0,0,0,2.573-1.5,2.143,2.143,0,0,0,.381-.985c.093-1.663.056-3.316.065-4.979.009-3.744-.009-7.478.019-11.212Z" transform="translate(590.631 5556)" fill="#dcaa9b"/>
  </g>
</svg>
