<svg xmlns="http://www.w3.org/2000/svg" width="48" height="48" viewBox="0 0 48 48">
  <g id="twitter" transform="translate(5883 -5435)">
    <circle id="Ellipse_12" data-name="Ellipse 12" cx="24" cy="24" r="24" transform="translate(-5883 5435)" fill="#e1ad9d" opacity="0.1"/>
    <path id="Icon_awesome-twitter" data-name="Icon awesome-twitter" d="M23.524,8.688c.017.233.017.466.017.7A15.184,15.184,0,0,1,8.252,24.676,15.185,15.185,0,0,1,0,22.263a11.117,11.117,0,0,0,1.3.067,10.762,10.762,0,0,0,6.671-2.3,5.383,5.383,0,0,1-5.024-3.727,6.777,6.777,0,0,0,1.015.083,5.683,5.683,0,0,0,1.414-.183,5.374,5.374,0,0,1-4.309-5.274v-.067a5.412,5.412,0,0,0,2.429.682A5.382,5.382,0,0,1,1.83,4.362,15.274,15.274,0,0,0,12.91,9.986a6.066,6.066,0,0,1-.133-1.231,5.379,5.379,0,0,1,9.3-3.677,10.58,10.58,0,0,0,3.411-1.3,5.359,5.359,0,0,1-2.362,2.961,10.773,10.773,0,0,0,3.094-.832,11.551,11.551,0,0,1-2.7,2.778Z" transform="translate(-5872 5444.619)" fill="#dcaa9b"/>
  </g>
</svg>
