<svg xmlns="http://www.w3.org/2000/svg" width="62.815" height="61.372" viewBox="0 0 62.815 61.372">
  <g id="Group_113" data-name="Group 113" transform="translate(-108 -112.407)">
    <path id="Path_170" data-name="Path 170" d="M108,267.752h4.18c.01-.2.03-.417.03-.631,0-1.983.024-3.966-.012-5.948-.011-.582.138-.756.738-.754q13.306.029,26.613.013H150.57v7.338h4.2c.014.281.035.5.035.715q0,11.9-.014,23.792a1.428,1.428,0,0,1-.358.9q-1.978,2.054-4.029,4.036a1.335,1.335,0,0,1-.841.351q-18.151.026-36.3,0a1.427,1.427,0,0,1-.887-.381c-1.476-1.409-2.92-2.85-4.374-4.28Zm43.084,3.771h-39.4v.782q0,8,0,16.008a8.332,8.332,0,0,0,.112,2.968c.342.84,1.317,1.413,1.98,2.134a1.437,1.437,0,0,0,1.171.494q15.4-.022,30.79-.013a7.8,7.8,0,0,0,2.788-.106c.786-.322,1.292-1.277,2-1.856.736-.6.642-1.315.531-2.142H119.2V275.1h31.885Zm-28.215,14.564h28.2v-7.244h-28.2Zm-6.974-18.343h30.965v-3.632H116.652a1.082,1.082,0,0,0-.424.014c-.133.062-.317.21-.319.324C115.884,265.53,115.894,266.61,115.894,267.744Z" transform="translate(0 -123.799)" fill="#e1ad9d"/>
    <path id="Path_171" data-name="Path 171" d="M221.495,123.464q-4.721,0-9.443-.009-11.13,0-22.26.009H189.1c0,1.13,0,2.225,0,3.321a5.841,5.841,0,0,1-7.58,5.657,5.8,5.8,0,0,1-4.07-5.409c-.021-1.162,0-2.325,0-3.567h-8.858V112.442c.206-.012.4-.033.6-.033q25.939,0,51.879,0c.143,0,.286.01.429.015Zm-25.45-3.744h21.734V116.13H196.432Zm-15.184-3.613c.091,1.206.234,2.354.254,3.5.039,2.308.063,4.619-.006,6.926a2.239,2.239,0,0,0,2.179,2.492c1.315-.025,2.134-.98,2.135-2.524q0-2.942,0-5.885v-.852c1.69,0,3.319.007,4.948,0a2.152,2.152,0,0,0,2.127-1.543,13.668,13.668,0,0,0,.2-2.115Zm-3.418,3.643c0-.477.013-.9,0-1.323a2.206,2.206,0,0,0-1.882-2.233,28.68,28.68,0,0,0-3.274-.027v3.582Z" transform="translate(-50.679 0)" fill="#e1ad9d"/>
  </g>
</svg>
